<?xml version="1.0" encoding="utf-8"?>
<!-- Generator: Adobe Illustrator 23.0.4, SVG Export Plug-In . SVG Version: 6.00 Build 0)  -->
<svg version="1.1" id="Capa_1" xmlns="http://www.w3.org/2000/svg" xmlns:xlink="http://www.w3.org/1999/xlink" x="0px" y="0px"
	 viewBox="0 0 49.7 49.7" style="enable-background:new 0 0 49.7 49.7;" xml:space="preserve">
<style type="text/css">
	.st0{fill:#FAAF41;}
</style>
<g>
	<g>
		<g>
			<path class="st0" d="M20.9,20.7c0-1.9-1.3-1.9-1.3-1.9h-0.7h-4.6h0v4.1h5C20.1,22.9,20.9,22.6,20.9,20.7z"/>
			<path class="st0" d="M33.2,22.9c-2.8,0-3.2,2.8-3.2,2.8h6C36,25.7,36,22.9,33.2,22.9z"/>
			<path class="st0" d="M19.6,25.7h-5.3v4.9H19c0.1,0,0.2,0,0.3,0c0.8,0,2.2-0.2,2.2-2.4C21.5,25.7,19.6,25.7,19.6,25.7z"/>
			<path class="st0" d="M24.8,0C11.1,0,0,11.1,0,24.8c0,13.7,11.1,24.8,24.8,24.8c13.7,0,24.8-11.1,24.8-24.8
				C49.7,11.1,38.5,0,24.8,0z M29.2,16.6h7.5v2.3h-7.5V16.6z M25.4,28.4c0,5.6-5.8,5.4-5.8,5.4h-5.3h-0.2h-4V15.5h4h0.2h5.3
				c2.9,0,5.2,1.6,5.2,4.9c0,3.3-2.8,3.5-2.8,3.5C25.7,23.9,25.4,28.4,25.4,28.4z M39.5,28.1H30c0,3.4,3.2,3.2,3.2,3.2
				c3,0,2.9-2,2.9-2h3.2c0,5.2-6.3,4.9-6.3,4.9c-7.5,0-7-7-7-7s0-7,7-7C40.5,20.2,39.5,28.1,39.5,28.1z"/>
		</g>
	</g>
</g>
</svg>
