<?xml version="1.0" encoding="utf-8"?>
<!-- Generator: Adobe Illustrator 23.0.4, SVG Export Plug-In . SVG Version: 6.00 Build 0)  -->
<svg version="1.1" id="Capa_1" xmlns="http://www.w3.org/2000/svg" xmlns:xlink="http://www.w3.org/1999/xlink" x="0px" y="0px"
	 viewBox="0 0 612 612" style="enable-background:new 0 0 612 612;" xml:space="preserve">
<style type="text/css">
	.st0{fill:#FFFFFF;}
</style>
<g>
	<g id="_x37__24_">
		<g>
			<path class="st0" d="M306,0C137,0,0,137,0,306s137,306,306,306s306-137,306-306S475,0,306,0z M431,322.8L322.8,431
				c-4.6,4.6-10.9,6-16.8,5c-5.9,1.1-12.2-0.4-16.8-5L181,322.8c-7.5-7.5-7.5-19.6,0-27c7.5-7.5,19.6-7.5,27,0l78.8,78.8V172.1
				c0-10.6,8.6-19.1,19.1-19.1s19.1,8.6,19.1,19.1v202.5l78.8-78.8c7.5-7.5,19.6-7.5,27,0C438.5,303.2,438.5,315.3,431,322.8z"/>
		</g>
	</g>
</g>
</svg>
