<?xml version="1.0" encoding="utf-8"?>
<!-- Generator: Adobe Illustrator 23.0.4, SVG Export Plug-In . SVG Version: 6.00 Build 0)  -->
<svg version="1.1" id="Layer_1" xmlns="http://www.w3.org/2000/svg" xmlns:xlink="http://www.w3.org/1999/xlink" x="0px" y="0px"
	 viewBox="0 0 88 31" style="enable-background:new 0 0 88 31;" xml:space="preserve">
<style type="text/css">
	.st0{fill:#FAAF41;}
	.st1{fill:none;}
</style>
<g>
	<g>
		<path class="st0" d="M7.85,20.87H6.12v1.61h1.94v0.48H5.54V18.5h2.41v0.48H6.12v1.41h1.74V20.87z"/>
		<path class="st0" d="M8.7,22.37c0.17,0.11,0.48,0.23,0.77,0.23c0.42,0,0.62-0.21,0.62-0.48c0-0.28-0.17-0.43-0.6-0.59
			c-0.58-0.21-0.85-0.52-0.85-0.91c0-0.52,0.42-0.94,1.11-0.94c0.32,0,0.61,0.09,0.79,0.2l-0.15,0.42
			c-0.13-0.08-0.36-0.19-0.66-0.19c-0.34,0-0.54,0.2-0.54,0.44c0,0.27,0.19,0.38,0.61,0.54c0.56,0.21,0.84,0.49,0.84,0.97
			c0,0.56-0.44,0.96-1.2,0.96c-0.35,0-0.68-0.09-0.9-0.22L8.7,22.37z"/>
		<path class="st0" d="M12.11,18.84v0.92h0.84v0.44h-0.84v1.73c0,0.4,0.11,0.62,0.44,0.62c0.15,0,0.27-0.02,0.34-0.04l0.03,0.44
			c-0.11,0.05-0.29,0.08-0.52,0.08c-0.27,0-0.49-0.09-0.63-0.25c-0.17-0.17-0.23-0.46-0.23-0.84V20.2h-0.5v-0.44h0.5v-0.77
			L12.11,18.84z"/>
		<path class="st0" d="M16.29,22.09c0,0.33,0.01,0.62,0.03,0.88H15.8l-0.03-0.52h-0.01c-0.15,0.26-0.49,0.6-1.06,0.6
			c-0.5,0-1.11-0.28-1.11-1.41v-1.88h0.58v1.78c0,0.61,0.19,1.02,0.72,1.02c0.39,0,0.66-0.27,0.77-0.53
			c0.03-0.09,0.05-0.19,0.05-0.3v-1.97h0.58V22.09z"/>
		<path class="st0" d="M20.03,18.26v3.88c0,0.29,0.01,0.61,0.03,0.83h-0.52l-0.03-0.56H19.5c-0.18,0.36-0.57,0.63-1.09,0.63
			c-0.78,0-1.37-0.66-1.37-1.63c-0.01-1.07,0.66-1.72,1.44-1.72c0.49,0,0.82,0.23,0.97,0.49h0.01v-1.92H20.03z M19.45,21.06
			c0-0.07-0.01-0.17-0.03-0.25c-0.09-0.37-0.4-0.68-0.84-0.68c-0.6,0-0.96,0.53-0.96,1.24c0,0.65,0.32,1.19,0.95,1.19
			c0.39,0,0.75-0.26,0.86-0.7c0.02-0.08,0.03-0.16,0.03-0.25V21.06z"/>
		<path class="st0" d="M21.65,18.86c0.01,0.2-0.14,0.36-0.37,0.36c-0.21,0-0.35-0.16-0.35-0.36c0-0.21,0.15-0.36,0.36-0.36
			C21.51,18.49,21.65,18.65,21.65,18.86z M21,22.97v-3.21h0.58v3.21H21z"/>
		<path class="st0" d="M25.46,21.33c0,1.19-0.82,1.7-1.6,1.7c-0.87,0-1.54-0.64-1.54-1.65c0-1.07,0.7-1.7,1.59-1.7
			C24.84,19.68,25.46,20.35,25.46,21.33z M22.91,21.37c0,0.7,0.4,1.23,0.97,1.23c0.56,0,0.97-0.52,0.97-1.25
			c0-0.54-0.27-1.23-0.96-1.23C23.21,20.12,22.91,20.76,22.91,21.37z"/>
		<path class="st0" d="M7.3,30.93l-0.05-0.4H7.23C7.05,30.77,6.71,31,6.25,31c-0.65,0-0.98-0.46-0.98-0.92
			c0-0.78,0.69-1.2,1.93-1.19v-0.07c0-0.27-0.07-0.74-0.73-0.74c-0.3,0-0.61,0.09-0.84,0.24L5.5,27.93
			c0.27-0.17,0.65-0.29,1.05-0.29c0.98,0,1.22,0.67,1.22,1.31v1.2c0,0.28,0.01,0.55,0.05,0.77H7.3z M7.21,29.29
			c-0.64-0.01-1.36,0.1-1.36,0.72c0,0.38,0.25,0.56,0.55,0.56c0.42,0,0.68-0.27,0.78-0.54c0.02-0.06,0.03-0.13,0.03-0.19V29.29z"/>
		<path class="st0" d="M8.78,30.93v-2.76H8.32v-0.44h0.45v-0.17c0-0.85,0.5-1.4,1.4-1.4c0.3,0,0.65,0.09,0.82,0.21l-0.17,0.44
			c-0.14-0.1-0.39-0.19-0.68-0.19c-0.62,0-0.8,0.43-0.8,0.94v0.16h1.86v3.21h-0.58v-2.76H9.35v2.76H8.78z"/>
		<path class="st0" d="M12.19,26.22h0.58v4.71h-0.58V26.22z"/>
		<path class="st0" d="M14.4,26.82c0.01,0.2-0.14,0.36-0.37,0.36c-0.21,0-0.35-0.16-0.35-0.36c0-0.21,0.15-0.36,0.36-0.36
			C14.26,26.45,14.4,26.61,14.4,26.82z M13.75,30.93v-3.21h0.58v3.21H13.75z"/>
		<path class="st0" d="M17.08,30.93l-0.05-0.4h-0.02C16.84,30.77,16.49,31,16.03,31c-0.65,0-0.98-0.46-0.98-0.92
			c0-0.78,0.69-1.2,1.93-1.19v-0.07c0-0.27-0.07-0.74-0.73-0.74c-0.3,0-0.61,0.09-0.84,0.24l-0.13-0.38
			c0.27-0.17,0.65-0.29,1.05-0.29c0.98,0,1.22,0.67,1.22,1.31v1.2c0,0.28,0.01,0.55,0.05,0.77H17.08z M16.99,29.29
			c-0.64-0.01-1.36,0.1-1.36,0.72c0,0.38,0.25,0.56,0.55,0.56c0.42,0,0.68-0.27,0.78-0.54c0.02-0.06,0.03-0.13,0.03-0.19V29.29z"/>
		<path class="st0" d="M21.27,26.22v3.88c0,0.29,0.01,0.61,0.03,0.83h-0.52l-0.03-0.56h-0.01C20.56,30.73,20.17,31,19.64,31
			c-0.78,0-1.37-0.66-1.37-1.63c-0.01-1.07,0.66-1.72,1.44-1.72c0.49,0,0.82,0.23,0.97,0.49h0.01v-1.92H21.27z M20.69,29.02
			c0-0.07-0.01-0.17-0.03-0.25c-0.09-0.37-0.4-0.68-0.84-0.68c-0.6,0-0.96,0.53-0.96,1.24c0,0.65,0.32,1.19,0.95,1.19
			c0.39,0,0.75-0.26,0.86-0.7c0.02-0.08,0.03-0.16,0.03-0.25V29.02z"/>
		<path class="st0" d="M25.15,29.3c0,1.19-0.82,1.7-1.6,1.7c-0.87,0-1.54-0.64-1.54-1.65c0-1.07,0.7-1.7,1.59-1.7
			C24.52,27.65,25.15,28.31,25.15,29.3z M22.6,29.33c0,0.7,0.4,1.23,0.97,1.23c0.56,0,0.97-0.52,0.97-1.25
			c0-0.54-0.27-1.23-0.96-1.23C22.9,28.08,22.6,28.72,22.6,29.33z"/>
		<path class="st0" d="M29.07,30.93l-0.05-0.4H29C28.82,30.77,28.48,31,28.02,31c-0.65,0-0.98-0.46-0.98-0.92
			c0-0.78,0.69-1.2,1.93-1.19v-0.07c0-0.27-0.07-0.74-0.73-0.74c-0.3,0-0.61,0.09-0.84,0.24l-0.13-0.38
			c0.27-0.17,0.65-0.29,1.05-0.29c0.98,0,1.22,0.67,1.22,1.31v1.2c0,0.28,0.01,0.55,0.05,0.77H29.07z M28.98,29.29
			c-0.64-0.01-1.36,0.1-1.36,0.72c0,0.38,0.25,0.56,0.55,0.56c0.42,0,0.68-0.27,0.78-0.54c0.02-0.06,0.03-0.13,0.03-0.19V29.29z"/>
	</g>
	<g>
		<polygon class="st0" points="59.5,14.37 50.2,5.07 50.17,14.37 		"/>
		<polygon class="st0" points="49.28,4.15 49.28,14.37 49.93,14.37 49.95,4.82 		"/>
		<g>
			<g>
				<path class="st0" d="M59.38,29.41c0,0.87-0.53,1.51-1.62,1.51c-0.33,0-0.76-0.03-1.17-0.07c-0.07-0.01-0.1-0.03-0.1-0.1v-4.66
					c0-0.07,0.03-0.09,0.1-0.1c0.42-0.04,0.78-0.07,1.04-0.07c1.15,0,1.55,0.52,1.55,1.32c0,0.49-0.25,0.78-0.58,0.97
					C59.01,28.37,59.38,28.71,59.38,29.41z M57.11,26.49v1.56h0.37c0.77,0,1.05-0.3,1.05-0.81c0-0.53-0.34-0.77-0.9-0.77
					C57.47,26.47,57.29,26.48,57.11,26.49z M58.73,29.41c0-0.59-0.36-0.86-1.04-0.86c-0.28,0-0.47,0-0.58,0.01v1.77
					c0.22,0.01,0.44,0.03,0.65,0.03C58.3,30.36,58.73,30.09,58.73,29.41z"/>
			</g>
			<g>
				<path class="st0" d="M69.32,30.38v0.36c0,0.07-0.03,0.1-0.1,0.1h-2.34c-0.07,0-0.1-0.03-0.1-0.1v-4.66c0-0.07,0.03-0.1,0.1-0.1
					h0.43c0.07,0,0.1,0.03,0.1,0.1v4.19h1.81C69.29,30.28,69.32,30.31,69.32,30.38z"/>
			</g>
			<g>
				<path class="st0" d="M73.17,29.41c0,0.87-0.53,1.51-1.62,1.51c-0.33,0-0.76-0.03-1.17-0.07c-0.07-0.01-0.1-0.03-0.1-0.1v-4.66
					c0-0.07,0.03-0.09,0.1-0.1c0.42-0.04,0.78-0.07,1.04-0.07c1.15,0,1.55,0.52,1.55,1.32c0,0.49-0.25,0.78-0.58,0.97
					C72.81,28.37,73.17,28.71,73.17,29.41z M70.9,26.49v1.56h0.37c0.77,0,1.05-0.3,1.05-0.81c0-0.53-0.34-0.77-0.9-0.77
					C71.26,26.47,71.09,26.48,70.9,26.49z M72.52,29.41c0-0.59-0.36-0.86-1.04-0.86c-0.28,0-0.47,0-0.58,0.01v1.77
					c0.22,0.01,0.44,0.03,0.65,0.03C72.1,30.36,72.52,30.09,72.52,29.41z"/>
			</g>
			<g>
				<path class="st0" d="M76.94,30.38v0.36c0,0.07-0.03,0.1-0.1,0.1h-2.39c-0.07,0-0.1-0.03-0.1-0.1v-4.66c0-0.07,0.03-0.1,0.1-0.1
					h2.32c0.07,0,0.1,0.03,0.1,0.1v0.36c0,0.07-0.03,0.1-0.1,0.1h-1.79v1.51h1.55c0.07,0,0.1,0.03,0.1,0.1v0.36
					c0,0.07-0.03,0.1-0.1,0.1h-1.55v1.65h1.86C76.9,30.28,76.94,30.31,76.94,30.38z"/>
			</g>
			<g>
				<path class="st0" d="M81.37,30.84h-0.53c-0.05,0-0.09-0.02-0.12-0.07l-1.35-2.05l-0.61,0.9v1.11c0,0.07-0.03,0.1-0.1,0.1h-0.43
					c-0.07,0-0.1-0.03-0.1-0.1v-4.66c0-0.07,0.03-0.1,0.1-0.1h0.43c0.07,0,0.1,0.03,0.1,0.1v2.67l1.8-2.7
					c0.03-0.05,0.07-0.07,0.12-0.07h0.53c0.08,0,0.11,0.05,0.07,0.12l-1.49,2.18l1.65,2.44C81.49,30.79,81.45,30.84,81.37,30.84z"/>
			</g>
		</g>
		<g>
			<g>
				<path class="st0" d="M57.8,24.5h-0.06c-0.07,0-0.11-0.04-0.13-0.13c-0.11,0.08-0.28,0.15-0.43,0.15c-0.48,0-0.76-0.3-0.76-0.92
					c0-0.62,0.3-0.92,0.78-0.92c0.18,0,0.36,0.04,0.48,0.12c0.01,0.01,0.02,0.03,0.01,0.04l-0.07,0.13
					c-0.01,0.02-0.04,0.02-0.06,0.01c-0.09-0.06-0.22-0.1-0.36-0.1c-0.33,0-0.54,0.26-0.54,0.71c0,0.46,0.19,0.71,0.52,0.71
					c0.16,0,0.31-0.1,0.41-0.17v-0.43H57.2c-0.02,0-0.04-0.01-0.04-0.04v-0.13c0-0.02,0.01-0.04,0.04-0.04h0.58
					c0.02,0,0.04,0.01,0.04,0.04v0.13v0c0,0,0,0,0,0v0.5c0,0.1,0.01,0.18,0.02,0.27C57.85,24.48,57.83,24.5,57.8,24.5z"/>
			</g>
			<g>
				<path class="st0" d="M59.37,24.5h-0.19c-0.02,0-0.03-0.01-0.04-0.02l-0.42-0.69c-0.01,0-0.03,0-0.05,0c-0.09,0-0.16,0-0.21,0
					v0.68c0,0.02-0.01,0.04-0.04,0.04h-0.16c-0.02,0-0.04-0.01-0.04-0.04v-1.71c0-0.02,0.01-0.03,0.04-0.04
					c0.15-0.01,0.31-0.02,0.43-0.02c0.41,0,0.6,0.21,0.6,0.54c0,0.28-0.17,0.44-0.36,0.5l0.47,0.72
					C59.41,24.48,59.4,24.5,59.37,24.5z M58.66,23.58c0.27,0,0.38-0.17,0.38-0.35c0-0.22-0.11-0.34-0.36-0.34
					c-0.08,0-0.16,0-0.24,0.01v0.68C58.49,23.58,58.56,23.58,58.66,23.58z"/>
			</g>
			<g>
				<path class="st0" d="M60.92,22.75v1.1c0,0.43-0.22,0.67-0.65,0.67c-0.43,0-0.64-0.25-0.64-0.67v-1.1c0-0.02,0.01-0.04,0.04-0.04
					h0.16c0.02,0,0.04,0.01,0.04,0.04v1.1c0,0.29,0.13,0.47,0.41,0.47c0.29,0,0.42-0.18,0.42-0.47v-1.1c0-0.02,0.01-0.04,0.04-0.04
					h0.16C60.91,22.71,60.92,22.73,60.92,22.75z"/>
			</g>
			<g>
				<path class="st0" d="M62.4,23.22c0,0.4-0.33,0.54-0.63,0.54c-0.09,0-0.16,0-0.21,0v0.69c0,0.02-0.01,0.04-0.04,0.04h-0.16
					c-0.02,0-0.04-0.01-0.04-0.04v-1.71c0-0.02,0.01-0.03,0.04-0.04c0.15-0.01,0.31-0.02,0.43-0.02
					C62.22,22.69,62.4,22.9,62.4,23.22z M62.16,23.22c0-0.2-0.11-0.33-0.36-0.33c-0.08,0-0.16,0-0.24,0.01v0.66
					c0.05,0,0.11,0.01,0.21,0.01C62.05,23.56,62.16,23.41,62.16,23.22z"/>
			</g>
			<g>
				<path class="st0" d="M62.64,23.6c0-0.62,0.29-0.92,0.8-0.92c0.5,0,0.8,0.3,0.8,0.92c0,0.62-0.29,0.92-0.8,0.92
					C62.93,24.52,62.64,24.22,62.64,23.6z M64,23.6c0-0.47-0.21-0.71-0.56-0.71c-0.35,0-0.56,0.24-0.56,0.71s0.21,0.71,0.56,0.71
					C63.79,24.32,64,24.08,64,23.6z"/>
			</g>
			<g>
				<path class="st0" d="M66.5,24.34c-0.12,0.09-0.32,0.18-0.53,0.18c-0.48,0-0.76-0.3-0.76-0.92c0-0.62,0.28-0.92,0.76-0.92
					c0.18,0,0.34,0.04,0.47,0.12c0.01,0.01,0.02,0.03,0.01,0.04l-0.07,0.13c-0.01,0.02-0.04,0.02-0.06,0.01
					c-0.09-0.06-0.2-0.1-0.34-0.1c-0.33,0-0.52,0.26-0.52,0.71c0,0.46,0.19,0.71,0.52,0.71c0.16,0,0.31-0.07,0.4-0.14
					c0.02-0.02,0.05-0.02,0.07,0l0.07,0.11C66.51,24.31,66.51,24.33,66.5,24.34z"/>
			</g>
			<g>
				<path class="st0" d="M66.69,23.6c0-0.62,0.29-0.92,0.8-0.92c0.5,0,0.8,0.3,0.8,0.92c0,0.62-0.29,0.92-0.8,0.92
					C66.99,24.52,66.69,24.22,66.69,23.6z M68.06,23.6c0-0.47-0.21-0.71-0.56-0.71c-0.35,0-0.56,0.24-0.56,0.71s0.21,0.71,0.56,0.71
					C67.85,24.32,68.06,24.08,68.06,23.6z"/>
			</g>
			<g>
				<path class="st0" d="M69.81,24.5h-0.19c-0.02,0-0.03-0.01-0.04-0.02l-0.42-0.69c-0.01,0-0.03,0-0.05,0c-0.09,0-0.16,0-0.21,0
					v0.68c0,0.02-0.01,0.04-0.04,0.04H68.7c-0.02,0-0.04-0.01-0.04-0.04v-1.71c0-0.02,0.01-0.03,0.04-0.04
					c0.15-0.01,0.31-0.02,0.43-0.02c0.41,0,0.6,0.21,0.6,0.54c0,0.28-0.17,0.44-0.36,0.5l0.47,0.72
					C69.85,24.48,69.84,24.5,69.81,24.5z M69.1,23.58c0.27,0,0.38-0.17,0.38-0.35c0-0.22-0.11-0.34-0.36-0.34
					c-0.08,0-0.16,0-0.24,0.01v0.68C68.94,23.58,69,23.58,69.1,23.58z"/>
			</g>
			<g>
				<path class="st0" d="M71.18,23.22c0,0.4-0.33,0.54-0.63,0.54c-0.09,0-0.16,0-0.21,0v0.69c0,0.02-0.01,0.04-0.04,0.04h-0.16
					c-0.02,0-0.04-0.01-0.04-0.04v-1.71c0-0.02,0.01-0.03,0.04-0.04c0.15-0.01,0.31-0.02,0.43-0.02C71,22.69,71.18,22.9,71.18,23.22
					z M70.94,23.22c0-0.2-0.11-0.33-0.36-0.33c-0.08,0-0.16,0-0.24,0.01v0.66c0.05,0,0.11,0.01,0.21,0.01
					C70.83,23.56,70.94,23.41,70.94,23.22z"/>
			</g>
			<g>
				<path class="st0" d="M71.42,23.6c0-0.62,0.29-0.92,0.8-0.92c0.5,0,0.8,0.3,0.8,0.92c0,0.62-0.29,0.92-0.8,0.92
					C71.71,24.52,71.42,24.22,71.42,23.6z M72.78,23.6c0-0.47-0.21-0.71-0.56-0.71c-0.35,0-0.56,0.24-0.56,0.71s0.21,0.71,0.56,0.71
					C72.57,24.32,72.78,24.08,72.78,23.6z"/>
			</g>
			<g>
				<path class="st0" d="M74.53,24.5h-0.19c-0.02,0-0.03-0.01-0.04-0.02l-0.42-0.69c-0.01,0-0.03,0-0.05,0c-0.09,0-0.16,0-0.21,0
					v0.68c0,0.02-0.01,0.04-0.04,0.04h-0.16c-0.02,0-0.04-0.01-0.04-0.04v-1.71c0-0.02,0.01-0.03,0.04-0.04
					c0.15-0.01,0.31-0.02,0.43-0.02c0.41,0,0.6,0.21,0.6,0.54c0,0.28-0.17,0.44-0.36,0.5l0.47,0.72
					C74.58,24.48,74.56,24.5,74.53,24.5z M73.83,23.58c0.27,0,0.38-0.17,0.38-0.35c0-0.22-0.11-0.34-0.36-0.34
					c-0.08,0-0.16,0-0.24,0.01v0.68C73.66,23.58,73.73,23.58,73.83,23.58z"/>
			</g>
			<g>
				<path class="st0" d="M76.16,24.5h-0.17c-0.02,0-0.03-0.01-0.04-0.03l-0.14-0.41h-0.74l-0.14,0.41
					c-0.01,0.02-0.02,0.03-0.04,0.03h-0.17c-0.03,0-0.04-0.02-0.03-0.04l0.61-1.71c0.01-0.02,0.02-0.03,0.04-0.03h0.18
					c0.02,0,0.03,0.01,0.04,0.03l0.61,1.71C76.2,24.48,76.19,24.5,76.16,24.5z M75.74,23.85l-0.3-0.89l-0.3,0.89H75.74z"/>
			</g>
			<g>
				<path class="st0" d="M77.3,22.75v0.13c0,0.02-0.01,0.04-0.04,0.04h-0.45v1.54c0,0.02-0.01,0.04-0.04,0.04h-0.16
					c-0.02,0-0.04-0.01-0.04-0.04v-1.54h-0.45c-0.02,0-0.04-0.01-0.04-0.04v-0.13c0-0.02,0.01-0.04,0.04-0.04h1.13
					C77.29,22.71,77.3,22.73,77.3,22.75z"/>
			</g>
			<g>
				<path class="st0" d="M77.78,22.71c0.02,0,0.04,0.01,0.04,0.04v1.71c0,0.02-0.01,0.04-0.04,0.04h-0.16
					c-0.02,0-0.04-0.01-0.04-0.04v-1.71c0-0.02,0.01-0.04,0.04-0.04H77.78z"/>
			</g>
			<g>
				<path class="st0" d="M79.57,22.76l-0.6,1.71c-0.01,0.02-0.02,0.03-0.04,0.03h-0.19c-0.02,0-0.03-0.01-0.04-0.03l-0.6-1.71
					c-0.01-0.02,0-0.04,0.03-0.04h0.17c0.02,0,0.03,0.01,0.04,0.03l0.5,1.5l0.5-1.5c0.01-0.02,0.02-0.03,0.04-0.03h0.17
					C79.57,22.71,79.58,22.73,79.57,22.76z"/>
			</g>
			<g>
				<path class="st0" d="M79.72,23.6c0-0.62,0.29-0.92,0.8-0.92c0.5,0,0.8,0.3,0.8,0.92c0,0.62-0.29,0.92-0.8,0.92
					C80.01,24.52,79.72,24.22,79.72,23.6z M81.08,23.6c0-0.47-0.21-0.71-0.56-0.71c-0.35,0-0.56,0.24-0.56,0.71s0.21,0.71,0.56,0.71
					C80.87,24.32,81.08,24.08,81.08,23.6z"/>
			</g>
		</g>
		<polygon class="st0" points="59.5,16.25 50.2,25.55 50.17,16.25 		"/>
		<polygon class="st0" points="49.28,26.46 49.28,16.25 49.93,16.25 49.95,25.79 		"/>
		<g>
			<polygon class="st0" points="47.11,31 32,15.87 32.38,15.01 32.45,15.05 32.1,15.85 47.09,30.86 47.47,29.93 47.55,29.96 			"/>
		</g>
		<g>
			<g>
				<path class="st0" d="M40.29,15.56l-0.53-0.53l7.71-8.23v1.49l-0.01,0.01L40.29,15.56z M39.87,15.03l0.42,0.42l7.1-7.18V7.01
					L39.87,15.03z"/>
			</g>
		</g>
		<g>
			<polygon class="st1" points="47.57,22.67 47.57,7.35 39.81,15.03 			"/>
			<polygon class="st0" points="39.81,15.03 47.47,7.43 47.47,0 32.32,15.04 47.55,30.04 47.57,22.67 			"/>
		</g>
		<g>
			<g>
				<g>
					<polygon class="st0" points="60.05,30.81 60.06,30.78 62.81,25.9 62.97,26.02 62.96,26.05 62.81,25.93 60.09,30.78 
						61.59,30.78 61.59,30.8 					"/>
				</g>
			</g>
			<g>
				<g>
					<path class="st0" d="M64.46,30.8h-0.27l0-0.01l-1.32-2.28l0.1-0.17l0.01,0.01L64.46,30.8z M64.2,30.78h0.22l-1.46-2.4
						l-0.07,0.13L64.2,30.78z"/>
				</g>
			</g>
			<polygon class="st0" points="62.96,28.36 64.35,30.8 65.69,30.8 62.96,26 60.26,30.8 61.59,30.8 			"/>
		</g>
		<g>
			<path class="st0" d="M81.67,22.43c0-0.09,0.02-0.18,0.07-0.27c0.05-0.08,0.11-0.15,0.19-0.2c0.08-0.05,0.17-0.07,0.27-0.07
				c0.09,0,0.18,0.02,0.27,0.07c0.08,0.05,0.15,0.11,0.2,0.19c0.05,0.08,0.07,0.17,0.07,0.27c0,0.09-0.02,0.18-0.07,0.26
				c-0.05,0.08-0.11,0.15-0.19,0.2c-0.08,0.05-0.17,0.07-0.27,0.07c-0.1,0-0.19-0.02-0.27-0.07c-0.08-0.05-0.15-0.11-0.19-0.2
				C81.69,22.61,81.67,22.52,81.67,22.43z M81.76,22.43c0,0.08,0.02,0.15,0.06,0.22c0.04,0.07,0.09,0.12,0.16,0.16
				c0.07,0.04,0.14,0.06,0.22,0.06c0.08,0,0.15-0.02,0.22-0.06c0.07-0.04,0.12-0.09,0.16-0.16c0.04-0.07,0.06-0.14,0.06-0.22
				c0-0.08-0.02-0.15-0.06-0.22c-0.04-0.07-0.09-0.12-0.16-0.16c-0.07-0.04-0.14-0.06-0.22-0.06c-0.08,0-0.15,0.02-0.22,0.06
				c-0.07,0.04-0.12,0.09-0.16,0.16C81.78,22.28,81.76,22.35,81.76,22.43z M82.42,22.3c0,0.08-0.04,0.14-0.11,0.16l0.17,0.28h-0.15
				l-0.14-0.24h-0.06v0.24h-0.13v-0.64h0.19c0.08,0,0.14,0.02,0.18,0.05C82.4,22.19,82.42,22.24,82.42,22.3z M82.13,22.4h0.05
				c0.03,0,0.06-0.01,0.08-0.02s0.03-0.04,0.03-0.07c0-0.03-0.01-0.06-0.03-0.07c-0.02-0.01-0.04-0.02-0.08-0.02h-0.05V22.4z"/>
		</g>
	</g>
</g>
</svg>
