<?xml version="1.0" encoding="utf-8"?>
<!-- Generator: Adobe Illustrator 24.1.0, SVG Export Plug-In . SVG Version: 6.00 Build 0)  -->
<svg version="1.1" id="Capa_1" xmlns="http://www.w3.org/2000/svg" xmlns:xlink="http://www.w3.org/1999/xlink" x="0px" y="0px"
	 viewBox="0 0 789.8 789.8" style="enable-background:new 0 0 789.8 789.8;" xml:space="preserve">
<style type="text/css">
	.st0{fill:#FAAF41;}
</style>
<path class="st0" d="M394.9,0C176.8,0,0,176.8,0,394.9s176.8,394.9,394.9,394.9S789.8,613,789.8,394.9S613,0,394.9,0z M194.1,203.2
	h401.7c24.1,0,44.7,15.6,52.1,37.2L420,392.3h0c-13.4,8.9-36.8,8.9-50.2,0c0,0,0,0,0,0L141.9,240.4
	C149.4,218.8,169.9,203.2,194.1,203.2z M650.9,531.5c0,30.4-24.8,55.2-55.2,55.2H194.1c-30.4,0-55.2-24.7-55.2-55.2V274.4
	l214.3,142.8c11.7,7.8,26.7,11.7,41.7,11.7s30-3.9,41.7-11.7c0,0,0,0,0,0l214.2-142.8V531.5z"/>
</svg>
