<?xml version="1.0" encoding="utf-8"?>
<!-- Generator: Adobe Illustrator 24.1.0, SVG Export Plug-In . SVG Version: 6.00 Build 0)  -->
<svg version="1.1" id="Layer_1" xmlns="http://www.w3.org/2000/svg" xmlns:xlink="http://www.w3.org/1999/xlink" x="0px" y="0px"
	 viewBox="0 0 512 512" style="enable-background:new 0 0 512 512;" xml:space="preserve">
<style type="text/css">
	.st0{fill:#FAAF41;}
</style>
<path class="st0" d="M241.6,210.2l-83,87.8l75.5-41.4l39.4,41.4l82.5-87.8l-74.7,40.7L241.6,210.2z"/>
<path class="st0" d="M256,0C114.6,0,0,114.6,0,256s114.6,256,256,256s256-114.6,256-256S397.4,0,256,0z M258,393
	c-15.8,0-31.1-2.2-45.5-6.4L160.8,416v-55.2c-34.6-26.3-56.7-66.4-56.7-111.3C104.2,170.3,173,106,258,106
	c85,0,153.8,64.3,153.8,143.5C411.8,328.8,343,393,258,393z"/>
</svg>
