<?xml version="1.0" encoding="utf-8"?>
<!-- Generator: Adobe Illustrator 23.0.4, SVG Export Plug-In . SVG Version: 6.00 Build 0)  -->
<svg version="1.1" id="Capa_1" xmlns="http://www.w3.org/2000/svg" xmlns:xlink="http://www.w3.org/1999/xlink" x="0px" y="0px"
	 viewBox="0 0 552.8 552.8" style="enable-background:new 0 0 552.8 552.8;" xml:space="preserve">
<style type="text/css">
	.st0{fill:#FFFFFF;}
</style>
<path class="st0" d="M276.4,0C123.7,0,0,123.7,0,276.4s123.7,276.4,276.4,276.4S552.8,429,552.8,276.4S429,0,276.4,0z M201.4,401.5
	c0,5.6-4.5,10.1-10.1,10.1h-40.5c-5.6,0-10.1-4.5-10.1-10.1v-177c0-5.6,4.5-10.1,10.1-10.1h40.5c5.6,0,10.1,4.5,10.1,10.1V401.5z
	 M201.4,173.2c0,5.6-4.5,10.1-10.1,10.1h-40.5c-5.6,0-10.1-4.5-10.1-10.1v-36c0-5.6,4.5-10.1,10.1-10.1h40.5
	c5.6,0,10.1,4.5,10.1,10.1V173.2z M452.1,401.5c0,5.6-4.5,10.1-10.1,10.1h-40.5c-5.6,0-10.1-4.5-10.1-10.1v-74.7
	c0-24.8-1.3-40.8-3.9-48.1c-2.6-7.3-6.8-12.9-12.6-17c-5.8-4-12.9-6.1-21.1-6.1c-10.5,0-20,2.9-28.3,8.6
	c-8.4,5.8-14.1,13.4-17.2,22.9s-4.6,27.1-4.6,52.7v61.5c0,5.6-4.5,10.1-10.1,10.1h-40.5c-5.6,0-10.1-4.5-10.1-10.1v-177
	c0-5.6,4.5-10.1,10.1-10.1h36.2c5.6,0,10.1,4.5,10.1,10.1V238c0,5.6,2.7,6.5,6.5,2.4c18.9-20.8,41.9-31.1,69.1-31.1
	c13.4,0,25.6,2.4,36.7,7.2s19.5,11,25.2,18.5s9.7,16,11.9,25.5c2.2,9.5,3.3,23.1,3.3,40.8V401.5z"/>
</svg>
